<?xml version="1.0" encoding="UTF-8"?>
<!DOCTYPE svg PUBLIC "-//W3C//DTD SVG 1.1//EN" "http://www.w3.org/Graphics/SVG/1.1/DTD/svg11.dtd">
<svg xmlns="http://www.w3.org/2000/svg" version="1.1" width="328px" height="348px" style="shape-rendering:geometricPrecision; text-rendering:geometricPrecision; image-rendering:optimizeQuality; fill-rule:evenodd; clip-rule:evenodd" xmlns:xlink="http://www.w3.org/1999/xlink">
<g><path style="opacity:0.956" fill="#000000" d="M 154.5,37.5 C 212.166,34.2489 256.666,56.5823 288,104.5C 309.984,145.063 312.318,186.73 295,229.5C 269.17,280.619 227.504,307.619 170,310.5C 117.974,308.409 78.3074,285.409 51,241.5C 27.3854,195.658 27.7187,149.991 52,104.5C 75.7109,66.3088 109.878,43.9755 154.5,37.5 Z M 157.5,59.5 C 205.666,56.8323 242.833,75.499 269,115.5C 291.647,159.311 289.314,201.645 262,242.5C 232.284,278.931 194.118,293.431 147.5,286C 106.05,276.549 77.5495,252.049 62,212.5C 47.2118,164.485 57.7118,122.985 93.5,88C 112.08,72.2076 133.414,62.7076 157.5,59.5 Z"/></g>
<g><path style="opacity:0.938" fill="#000000" d="M 216.5,165.5 C 216.351,166.552 216.517,167.552 217,168.5C 221.317,170.786 223.984,174.119 225,178.5C 217.127,174.294 211.794,167.961 209,159.5C 208.346,158.304 207.846,158.304 207.5,159.5C 216.12,195.399 218.954,231.732 216,268.5C 215.612,269.428 214.945,270.095 214,270.5C 212.056,269.561 210.389,268.227 209,266.5C 199.365,253.562 192.698,239.228 189,223.5C 187.163,216.819 187.163,210.152 189,203.5C 191,200.167 193,196.833 195,193.5C 196.835,182.171 197.668,170.838 197.5,159.5C 196.252,158.96 195.085,158.293 194,157.5C 194.651,164.534 192.651,170.868 188,176.5C 168.283,200.203 143.949,217.536 115,228.5C 125.067,197.88 142.9,172.713 168.5,153C 173.726,149.36 179.393,148.027 185.5,149C 184.439,145.666 182.105,144.166 178.5,144.5C 169.83,145.303 161.164,146.137 152.5,147C 147.586,148.79 142.919,151.124 138.5,154C 121.728,155.817 105.728,152.15 90.5,143C 83.3229,139.491 76.9896,134.825 71.5,129C 73.3591,127.019 75.6924,126.019 78.5,126C 113.839,124.001 148.672,127.167 183,135.5C 183.688,134.668 183.521,134.002 182.5,133.5C 178.956,132.211 175.623,130.544 172.5,128.5C 170.144,125.978 167.977,123.312 166,120.5C 165.018,119.241 164.685,117.908 165,116.5C 168.833,119 172,122.167 174.5,126C 175.448,126.483 176.448,126.649 177.5,126.5C 176.439,121.695 175.439,116.861 174.5,112C 174.833,111.167 175.167,110.333 175.5,109.5C 177.814,113.935 179.647,118.602 181,123.5C 182.489,125.332 184.322,126.165 186.5,126C 184.509,123.517 183.509,120.684 183.5,117.5C 183.755,112.959 184.755,108.626 186.5,104.5C 187.775,108.851 187.775,113.185 186.5,117.5C 188.187,120.884 190.353,123.884 193,126.5C 196.193,125.409 199.359,125.242 202.5,126C 201.102,121.796 201.269,117.629 203,113.5C 206.07,111.553 208.57,109.053 210.5,106C 214.18,104.973 217.347,105.806 220,108.5C 223.438,103.251 223.105,98.2505 219,93.5C 218.219,92.0563 218.386,90.723 219.5,89.5C 226.304,96.1783 226.971,103.345 221.5,111C 225.167,113.333 228.167,116.333 230.5,120C 233.959,119.412 237.459,118.578 241,117.5C 245.596,118.382 249.762,120.215 253.5,123C 252.975,123.692 252.308,124.192 251.5,124.5C 245.797,119.936 239.797,119.436 233.5,123C 236.991,124.821 238.157,127.654 237,131.5C 234.986,133.183 233.32,135.183 232,137.5C 227.777,141.383 222.944,142.383 217.5,140.5C 217.218,144.115 217.218,147.782 217.5,151.5C 219.167,152.667 220.833,153.833 222.5,155C 227.864,155.171 233.198,155.671 238.5,156.5C 233.923,157.869 229.256,158.869 224.5,159.5C 221.42,158.523 218.42,157.689 215.5,157C 216.833,158.667 218.167,160.333 219.5,162C 224.545,162.958 229.212,164.791 233.5,167.5C 232.833,167.833 232.167,168.167 231.5,168.5C 226.518,167.337 221.518,166.337 216.5,165.5 Z"/></g>
</svg>
