<?xml version="1.0" encoding="UTF-8"?>
<!DOCTYPE svg PUBLIC "-//W3C//DTD SVG 1.1//EN" "http://www.w3.org/Graphics/SVG/1.1/DTD/svg11.dtd">
<svg xmlns="http://www.w3.org/2000/svg" version="1.1" width="200px" height="200px" style="shape-rendering:geometricPrecision; text-rendering:geometricPrecision; image-rendering:optimizeQuality; fill-rule:evenodd; clip-rule:evenodd" xmlns:xlink="http://www.w3.org/1999/xlink">
<g><path style="opacity:0.998" fill="#ff6633" d="M -0.5,-0.5 C 29.1667,-0.5 58.8333,-0.5 88.5,-0.5C 88.9432,8.60786 88.4432,17.6079 87,26.5C 70.0683,46.8288 53.2349,67.3288 36.5,88C 53.8301,88.4999 71.1635,88.6666 88.5,88.5C 88.5,102.833 88.5,117.167 88.5,131.5C 98.1724,131.334 107.839,131.5 117.5,132C 107.977,143.355 98.6439,154.855 89.5,166.5C 88.5012,177.48 88.1679,188.48 88.5,199.5C 58.8333,199.5 29.1667,199.5 -0.5,199.5C -0.5,132.833 -0.5,66.1667 -0.5,-0.5 Z"/></g>
<g><path style="opacity:0.996" fill="#ff6532" d="M 110.5,-0.5 C 140.167,-0.5 169.833,-0.5 199.5,-0.5C 199.5,66.1667 199.5,132.833 199.5,199.5C 169.833,199.5 140.167,199.5 110.5,199.5C 110.057,190.392 110.557,181.392 112,172.5C 128.932,152.171 145.765,131.671 162.5,111C 145.17,110.5 127.837,110.333 110.5,110.5C 110.5,96.1667 110.5,81.8333 110.5,67.5C 101.167,66.8333 91.8333,66.1667 82.5,65.5C 91.8981,54.3804 101.065,43.047 110,31.5C 110.5,20.8385 110.667,10.1719 110.5,-0.5 Z"/></g>
<g><path style="opacity:1" fill="#fffdfc" d="M 88.5,-0.5 C 95.8333,-0.5 103.167,-0.5 110.5,-0.5C 110.667,10.1719 110.5,20.8385 110,31.5C 101.065,43.047 91.8981,54.3804 82.5,65.5C 81.9569,65.56 81.6236,65.8933 81.5,66.5C 91.1437,67.4984 100.81,67.8318 110.5,67.5C 110.5,81.8333 110.5,96.1667 110.5,110.5C 127.837,110.333 145.17,110.5 162.5,111C 145.765,131.671 128.932,152.171 112,172.5C 110.557,181.392 110.057,190.392 110.5,199.5C 103.167,199.5 95.8333,199.5 88.5,199.5C 88.1679,188.48 88.5012,177.48 89.5,166.5C 98.6439,154.855 107.977,143.355 117.5,132C 107.839,131.5 98.1724,131.334 88.5,131.5C 88.5,117.167 88.5,102.833 88.5,88.5C 71.1635,88.6666 53.8301,88.4999 36.5,88C 53.2349,67.3288 70.0683,46.8288 87,26.5C 88.4432,17.6079 88.9432,8.60786 88.5,-0.5 Z"/></g>
<g><path style="opacity:1" fill="#ffa283" d="M 82.5,65.5 C 91.8333,66.1667 101.167,66.8333 110.5,67.5C 100.81,67.8318 91.1437,67.4984 81.5,66.5C 81.6236,65.8933 81.9569,65.56 82.5,65.5 Z"/></g>
</svg>
